<svg id="visual" viewBox="0 0 1440 1024" width="1440" height="1024" xmlns="http://www.w3.org/2000/svg" xmlns:xlink="http://www.w3.org/1999/xlink" version="1.1"><path d="M0 114L30 120.8C60 127.7 120 141.3 180 149.8C240 158.3 300 161.7 360 153C420 144.3 480 123.7 540 106.5C600 89.3 660 75.7 720 75.7C780 75.7 840 89.3 900 98C960 106.7 1020 110.3 1080 107C1140 103.7 1200 93.3 1260 100.2C1320 107 1380 131 1410 143L1440 155L1440 0L1410 0C1380 0 1320 0 1260 0C1200 0 1140 0 1080 0C1020 0 960 0 900 0C840 0 780 0 720 0C660 0 600 0 540 0C480 0 420 0 360 0C300 0 240 0 180 0C120 0 60 0 30 0L0 0Z" fill="#b2d3ff"></path><path d="M0 503L30 496.2C60 489.3 120 475.7 180 491C240 506.3 300 550.7 360 552.3C420 554 480 513 540 489.2C600 465.3 660 458.7 720 428C780 397.3 840 342.7 900 349.5C960 356.3 1020 424.7 1080 446.8C1140 469 1200 445 1260 421C1320 397 1380 373 1410 361L1440 349L1440 153L1410 141C1380 129 1320 105 1260 98.2C1200 91.3 1140 101.7 1080 105C1020 108.3 960 104.7 900 96C840 87.3 780 73.7 720 73.7C660 73.7 600 87.3 540 104.5C480 121.7 420 142.3 360 151C300 159.7 240 156.3 180 147.8C120 139.3 60 125.7 30 118.8L0 112Z" fill="#a2c9ff"></path><path d="M0 789L30 789C60 789 120 789 180 797.7C240 806.3 300 823.7 360 799.8C420 776 480 711 540 673.3C600 635.7 660 625.3 720 633.8C780 642.3 840 669.7 900 676.5C960 683.3 1020 669.7 1080 673.2C1140 676.7 1200 697.3 1260 699.2C1320 701 1380 684 1410 675.5L1440 667L1440 347L1410 359C1380 371 1320 395 1260 419C1200 443 1140 467 1080 444.8C1020 422.7 960 354.3 900 347.5C840 340.7 780 395.3 720 426C660 456.7 600 463.3 540 487.2C480 511 420 552 360 550.3C300 548.7 240 504.3 180 489C120 473.7 60 487.3 30 494.2L0 501Z" fill="#92beff"></path><path d="M0 861L30 873C60 885 120 909 180 917.5C240 926 300 919 360 888.3C420 857.7 480 803.3 540 771C600 738.7 660 728.3 720 745.3C780 762.3 840 806.7 900 825.3C960 844 1020 837 1080 843.8C1140 850.7 1200 871.3 1260 878.2C1320 885 1380 878 1410 874.5L1440 871L1440 665L1410 673.5C1380 682 1320 699 1260 697.2C1200 695.3 1140 674.7 1080 671.2C1020 667.7 960 681.3 900 674.5C840 667.7 780 640.3 720 631.8C660 623.3 600 633.7 540 671.3C480 709 420 774 360 797.8C300 821.7 240 804.3 180 795.7C120 787 60 787 30 787L0 787Z" fill="#7cacf7"></path><path d="M0 1025L30 1025C60 1025 120 1025 180 1025C240 1025 300 1025 360 1025C420 1025 480 1025 540 1025C600 1025 660 1025 720 1025C780 1025 840 1025 900 1025C960 1025 1020 1025 1080 1025C1140 1025 1200 1025 1260 1025C1320 1025 1380 1025 1410 1025L1440 1025L1440 869L1410 872.5C1380 876 1320 883 1260 876.2C1200 869.3 1140 848.7 1080 841.8C1020 835 960 842 900 823.3C840 804.7 780 760.3 720 743.3C660 726.3 600 736.7 540 769C480 801.3 420 855.7 360 886.3C300 917 240 924 180 915.5C120 907 60 883 30 871L0 859Z" fill="#679aef"></path></svg>