<svg xmlns="http://www.w3.org/2000/svg" version="1.1" xmlns:xlink="http://www.w3.org/1999/xlink" xmlns:svgjs="http://svgjs.dev/svgjs" width="1440" height="560" preserveAspectRatio="none" viewBox="0 0 1440 560"><g mask="url(&quot;#SvgjsMask1884&quot;)" fill="none"><rect width="1440" height="560" x="0" y="0" fill="url(&quot;#SvgjsLinearGradient1885&quot;)"></rect><path d="M1440 0L982.79 0L1440 7.95z" fill="rgba(255, 255, 255, .1)"></path><path d="M982.79 0L1440 7.95L1440 155.23999999999998L910.14 0z" fill="rgba(255, 255, 255, .075)"></path><path d="M910.14 0L1440 155.23999999999998L1440 278.89L891.06 0z" fill="rgba(255, 255, 255, .05)"></path><path d="M891.06 0L1440 278.89L1440 391.51L839.9 0z" fill="rgba(255, 255, 255, .025)"></path><path d="M0 560L400.98 560L0 405.06z" fill="rgba(0, 0, 0, .1)"></path><path d="M0 405.06L400.98 560L484.53000000000003 560L0 248.02z" fill="rgba(0, 0, 0, .075)"></path><path d="M0 248.01999999999998L484.53000000000003 560L840.5 560L0 137.71999999999997z" fill="rgba(0, 0, 0, .05)"></path><path d="M0 137.71999999999997L840.5 560L1146.15 560L0 85.14999999999998z" fill="rgba(0, 0, 0, .025)"></path></g><defs><mask id="SvgjsMask1884"><rect width="1440" height="560" fill="#ffffff"></rect></mask><linearGradient x1="50%" y1="0%" x2="50%" y2="100%" gradientUnits="userSpaceOnUse" id="SvgjsLinearGradient1885"><stop stop-color="rgba(75, 57, 209, 1)" offset="0"></stop><stop stop-color="rgba(90, 72, 245, 1)" offset="0.63"></stop></linearGradient></defs></svg>