<svg width="100" height="100" viewBox="0 0 100 100" xmlns="http://www.w3.org/2000/svg">
  <defs>
    <pattern id="header-texture" patternUnits="userSpaceOnUse" width="100" height="100">
      <rect width="100" height="100" fill="none"/>
      <path d="M25,0 L50,25 L25,50 L0,25 Z" fill="currentColor" opacity="0.03" transform="translate(0, 0)"/>
      <path d="M25,0 L50,25 L25,50 L0,25 Z" fill="currentColor" opacity="0.03" transform="translate(50, 50)"/>
      <path d="M75,0 L100,25 L75,50 L50,25 Z" fill="currentColor" opacity="0.03" transform="translate(0, 50)"/>
      <path d="M75,0 L100,25 L75,50 L50,25 Z" fill="currentColor" opacity="0.03" transform="translate(-50, 0)"/>
      <circle cx="25" cy="25" r="3" fill="currentColor" opacity="0.05"/>
      <circle cx="75" cy="25" r="3" fill="currentColor" opacity="0.05"/>
      <circle cx="25" cy="75" r="3" fill="currentColor" opacity="0.05"/>
      <circle cx="75" cy="75" r="3" fill="currentColor" opacity="0.05"/>
    </pattern>
  </defs>
  <rect width="100" height="100" fill="url(#header-texture)"/>
</svg>
