<svg width="100" height="100" viewBox="0 0 100 100" xmlns="http://www.w3.org/2000/svg">
  <defs>
    <pattern id="page-header-texture" patternUnits="userSpaceOnUse" width="100" height="100">
      <rect width="100" height="100" fill="none"/>
<!--      &lt;!&ndash; Wavy lines &ndash;&gt;-->
<!--      <path d="M0,20 Q25,40 50,20 T100,20" stroke="currentColor" stroke-width="1" fill="none" opacity="0.04"/>-->
<!--      <path d="M0,50 Q25,70 50,50 T100,50" stroke="currentColor" stroke-width="1" fill="none" opacity="0.04"/>-->
<!--      <path d="M0,80 Q25,100 50,80 T100,80" stroke="currentColor" stroke-width="1" fill="none" opacity="0.04"/>-->

      <!-- Dots -->
      <circle cx="10" cy="10" r="2" fill="currentColor" opacity="0.05"/>
      <circle cx="30" cy="30" r="2" fill="currentColor" opacity="0.05"/>
      <circle cx="50" cy="10" r="2" fill="currentColor" opacity="0.05"/>
      <circle cx="70" cy="30" r="2" fill="currentColor" opacity="0.05"/>
      <circle cx="90" cy="10" r="2" fill="currentColor" opacity="0.05"/>
      <circle cx="10" cy="50" r="2" fill="currentColor" opacity="0.05"/>
      <circle cx="30" cy="70" r="2" fill="currentColor" opacity="0.05"/>
      <circle cx="50" cy="50" r="2" fill="currentColor" opacity="0.05"/>
      <circle cx="70" cy="70" r="2" fill="currentColor" opacity="0.05"/>
      <circle cx="90" cy="50" r="2" fill="currentColor" opacity="0.05"/>
      <circle cx="10" cy="90" r="2" fill="currentColor" opacity="0.05"/>
      <circle cx="30" cy="90" r="2" fill="currentColor" opacity="0.05"/>
      <circle cx="50" cy="90" r="2" fill="currentColor" opacity="0.05"/>
      <circle cx="70" cy="90" r="2" fill="currentColor" opacity="0.05"/>
      <circle cx="90" cy="90" r="2" fill="currentColor" opacity="0.05"/>
    </pattern>
  </defs>
  <rect width="100" height="100" fill="url(#page-header-texture)"/>
</svg>
