<svg xmlns="http://www.w3.org/2000/svg" width="928" height="330" viewBox="0 0 928 330" version="1.1"><path d="M 732.637 29.651 C 731.961 31.877, 721.748 69.056, 718.531 81 C 717.271 85.675, 715.244 93.100, 714.025 97.500 C 711.617 106.190, 710.439 110.509, 706.526 125 C 705.115 130.225, 703.255 136.975, 702.393 140 C 701.530 143.025, 699.557 150.225, 698.009 156 C 694.600 168.713, 689.007 189.156, 687.438 194.637 C 687.101 195.813, 687.325 197.083, 687.936 197.460 C 690.255 198.894, 717.503 205.893, 718.116 205.213 C 718.469 204.821, 719.321 202.743, 720.008 200.595 C 721.648 195.470, 728.740 188.444, 733.649 187.081 C 735.767 186.492, 739.799 186.009, 742.608 186.006 L 747.716 186 773.098 148.250 C 787.059 127.488, 803.210 103.424, 808.991 94.776 C 814.771 86.127, 819.779 79.040, 820.119 79.026 C 820.460 79.012, 822.999 80.800, 825.763 83 C 828.526 85.200, 831.248 87, 831.812 87 C 832.376 87, 833.269 85.088, 833.795 82.750 C 834.322 80.413, 835.783 74.900, 837.043 70.500 C 841.042 56.532, 841.464 57.289, 827.500 53.355 C 808.467 47.993, 809.660 47.982, 807.541 53.531 C 800.648 71.581, 776.029 73.814, 766.305 57.272 C 763.826 53.054, 763.500 51.513, 763.500 44 L 763.500 35.500 759 34.356 C 756.525 33.726, 750.900 32.200, 746.500 30.963 C 734.591 27.616, 733.291 27.493, 732.637 29.651 M 171.683 65.469 C 165.990 66.953, 159.591 72.679, 157.900 77.802 C 151.542 97.069, 170.859 113.794, 187.551 103.474 C 199.081 96.346, 200.792 79.466, 190.892 70.521 C 184.722 64.948, 179.228 63.502, 171.683 65.469 M 729.733 79.691 C 729.482 80.136, 728.996 81.677, 728.653 83.115 C 728.066 85.579, 728.355 85.822, 733.663 87.332 C 736.761 88.214, 739.680 88.698, 740.148 88.408 C 740.617 88.119, 741 86.547, 741 84.916 C 741 82.759, 740.387 81.719, 738.750 81.103 C 734.683 79.570, 730.199 78.868, 729.733 79.691 M 747.988 87.530 C 746.713 90.886, 747.147 91.342, 753.171 92.960 C 758.508 94.395, 759.570 94.028, 760.241 90.521 C 760.856 87.300, 759.394 86.153, 753.675 85.369 C 749.289 84.768, 748.997 84.879, 747.988 87.530 M 766.604 92.440 C 765.712 95.997, 766.216 96.565, 771.426 97.877 C 777.556 99.421, 777.668 99.392, 778.864 95.961 C 779.832 93.183, 779.706 92.839, 777.403 91.963 C 776.017 91.436, 773.170 90.731, 771.076 90.396 C 767.576 89.836, 767.217 90.001, 766.604 92.440 M 801.671 118.750 C 791.575 134.012, 769.959 166.666, 753.636 191.314 C 737.312 215.962, 723.854 236.621, 723.729 237.223 C 723.491 238.359, 747.672 254.978, 749.583 254.992 C 750.178 254.996, 752.072 253.249, 753.792 251.109 C 758.068 245.788, 764.156 243, 771.500 243 C 782.337 243, 790.527 249.231, 793.631 259.838 C 795.368 265.774, 794.619 270.907, 790.972 278.056 L 789.040 281.842 801.995 290.421 C 809.120 295.140, 815.327 299, 815.789 299 C 816.250 299, 820.410 293.262, 825.033 286.250 C 851.011 246.847, 897.344 176.884, 904.140 166.800 C 908.476 160.365, 912.282 154.430, 912.596 153.610 C 913.005 152.545, 909.431 149.631, 900.071 143.396 L 886.974 134.671 883.292 138.972 C 879.100 143.869, 871.193 147.976, 865.928 147.990 C 848.743 148.037, 837.564 129.875, 845.003 113.994 C 846.288 111.250, 847.150 108.836, 846.920 108.629 C 845.573 107.422, 821.039 91, 820.582 91 C 820.277 91, 811.767 103.487, 801.671 118.750 M 786.607 96.582 C 785.102 100.503, 785.948 101.869, 790.750 103.269 C 796.227 104.866, 797.940 104.547, 798.150 101.893 C 798.232 100.852, 798.345 99.487, 798.400 98.860 C 798.455 98.234, 796.475 97.115, 794 96.376 C 788.205 94.643, 787.342 94.667, 786.607 96.582 M 70.487 165.500 L 70.500 220.500 90 220.534 L 109.500 220.568 90.259 220.263 L 71.017 219.957 70.745 165.228 L 70.474 110.500 70.487 165.500 M 799.615 141.465 C 798.727 142.820, 798.001 144.283, 798.002 144.715 C 798.003 145.147, 800.092 146.820, 802.645 148.432 L 807.286 151.365 809.143 149.072 C 810.164 147.810, 811 146.400, 811 145.937 C 811 145.164, 802.724 139, 801.685 139 C 801.435 139, 800.503 140.109, 799.615 141.465 M 816.557 152.223 C 815.701 153.445, 815.010 154.907, 815.021 155.473 C 815.044 156.579, 822.248 162, 823.694 162 C 824.175 162, 825.350 160.678, 826.304 159.062 L 828.040 156.124 823.590 153.062 C 821.142 151.378, 818.909 150, 818.627 150 C 818.344 150, 817.413 151, 816.557 152.223 M 298.750 158.744 C 303.288 158.929, 310.712 158.929, 315.250 158.744 C 319.788 158.559, 316.075 158.407, 307 158.407 C 297.925 158.407, 294.212 158.559, 298.750 158.744 M 832.648 163.415 C 831.742 164.798, 831 166.139, 831 166.394 C 831 166.649, 833.118 168.287, 835.706 170.034 L 840.411 173.210 842.206 170.994 C 844.704 167.910, 844.466 166.825, 840.743 164.305 C 835.519 160.769, 834.458 160.652, 832.648 163.415 M 848.615 174.465 C 847.727 175.820, 847 177.149, 847 177.417 C 847 178.112, 855.689 184, 856.715 184 C 857.184 184, 858.346 182.685, 859.295 181.078 L 861.021 178.156 856.460 175.078 C 853.952 173.385, 851.524 172, 851.065 172 C 850.606 172, 849.503 173.109, 848.615 174.465 M 865.655 184.829 C 864.745 185.835, 864 187.163, 864 187.781 C 864 188.793, 872.086 195, 873.404 195 C 874.059 195, 877.286 188.923, 876.824 188.561 C 874.939 187.089, 868.395 183, 867.923 183 C 867.586 183, 866.565 183.823, 865.655 184.829 M 167.302 220.746 C 172.693 220.926, 181.243 220.925, 186.302 220.744 C 191.361 220.563, 186.950 220.416, 176.500 220.417 C 166.050 220.418, 161.911 220.566, 167.302 220.746" stroke="none" fill="#f1c07c" fill-rule="evenodd"/><path d="M 348 142.500 L 348 220 366.500 220 L 385 220 385 203 C 385 193.650, 385.398 186, 385.884 186 C 386.371 186, 393.458 193.616, 401.634 202.924 L 416.500 219.849 441.250 219.924 C 464.883 219.997, 466 219.915, 466 218.109 C 466 217.069, 461.137 211.107, 455.193 204.859 C 430.288 178.681, 420 167.584, 420 166.900 C 420 166.500, 429.781 156.677, 441.734 145.070 C 460.341 127.004, 463.312 123.718, 462.376 122.234 C 461.401 120.686, 458.863 120.471, 438.738 120.231 L 416.193 119.963 401.406 135.481 C 393.273 144.017, 386.254 151, 385.809 151 C 385.364 151, 385 131.650, 385 108 L 385 65 366.500 65 L 348 65 348 142.500 M 486 143 L 486 221.044 504.750 220.772 L 523.500 220.500 523.500 143 L 523.500 65.500 504.750 65.228 L 486 64.956 486 143 M 41 92.991 L 41 111 56 111 L 71 111 71 165.500 L 71 220 90.500 220 L 110 220 110 165.527 L 110 111.053 124.750 110.777 L 139.500 110.500 139.500 93 L 139.500 75.500 90.250 75.241 L 41 74.981 41 92.991 M 258 118.563 C 239.346 122.591, 226.004 135.933, 220.978 155.585 C 213.045 186.603, 229.165 215.641, 258.103 222.463 C 266.199 224.371, 281.464 224.397, 290.335 222.517 C 309.724 218.409, 323.269 205.149, 324.749 188.829 L 325.278 183 307.139 183 C 289.520 183, 289 183.059, 289 185.050 C 289 188.691, 285.965 193.117, 282.466 194.579 C 277.479 196.662, 270.355 196.382, 266.416 193.948 C 259.742 189.823, 255.163 174.625, 256.941 162.500 C 258.024 155.116, 258.650 153.373, 261.700 149.249 C 265.311 144.365, 269.333 142.654, 275.332 143.450 C 283.846 144.579, 288.691 148.215, 289.647 154.192 L 290.256 158 307.128 158 C 316.408 158, 323.995 157.662, 323.988 157.250 C 323.952 154.959, 320.993 145.889, 319.027 142.045 C 315.579 135.298, 306.822 126.715, 299.732 123.130 C 288.244 117.322, 271.985 115.543, 258 118.563 M 158 169.978 L 158 220 177.009 220 L 196.019 220 195.759 170.250 L 195.500 120.500 176.750 120.228 L 158 119.956 158 169.978 M 541 121.070 C 541 121.659, 543.637 126.947, 546.859 132.820 C 550.082 138.694, 554.644 147.100, 556.997 151.500 C 564.459 165.452, 581.185 196.371, 583.129 199.807 C 584.158 201.626, 585 203.767, 585 204.564 C 585 205.361, 578.473 219.060, 570.497 235.007 L 555.993 264 574.867 264 L 593.740 264 618.526 216.250 C 632.159 189.988, 644.754 165.800, 646.516 162.500 C 654.179 148.148, 668 121.196, 668 120.604 C 668 120.249, 659.112 120.080, 648.250 120.229 L 628.500 120.500 617.368 142.477 L 606.236 164.454 595.114 142.227 L 583.991 120 562.496 120 C 547.890 120, 541 120.343, 541 121.070" stroke="none" fill="#7594bc" fill-rule="evenodd"/></svg>